<svg width="60px" height="50px" viewBox="68 -15 60 50" version="1.1" xmlns="http://www.w3.org/2000/svg" xmlns:xlink="http://www.w3.org/1999/xlink">
    <!-- Generator: Sketch 42 (36781) - http://www.bohemiancoding.com/sketch -->
    <desc>Created with Sketch.</desc>
    <defs></defs>
    <g id="logo-web" stroke="none" stroke-width="1" fill="none" fill-rule="evenodd" transform="translate(68.000000, -15.000000)">
        <g id="Page-1">
            <g id="Artboard-Copy">
                <g id="logo">
                    <g id="Group-7">
                        <g id="logo_icon">
                            <rect id="#" opacity="0.15" x="0" y="0" width="59.9526275" height="50"></rect>
                            <path d="M15.3537217,46.6802563 L11.4543638,46.6802563 C10.9152776,46.6802563 10.4795243,47.1205591 10.4795243,47.6630751 C10.4795243,48.2055911 10.9152776,48.645894 11.4543638,48.645894 L15.3537217,48.645894 C15.8928079,48.645894 16.3285612,48.2055911 16.3285612,47.6630751 C16.3285612,47.1205591 15.8928079,46.6802563 15.3537217,46.6802563 M15.3537217,40.783343 L5.60532696,40.783343 C5.06624074,40.783343 4.63048749,41.2236459 4.63048749,41.7661619 C4.63048749,42.3086779 5.06624074,42.7489808 5.60532696,42.7489808 L15.3537217,42.7489808 C15.8928079,42.7489808 16.3285612,42.3086779 16.3285612,41.7661619 C16.3285612,41.2236459 15.8928079,40.783343 15.3537217,40.783343 M15.3537217,34.8864298 L9.50468485,34.8864298 C8.96559862,34.8864298 8.52984538,35.3267327 8.52984538,35.8692487 C8.52984538,36.4117647 8.96559862,36.8520676 9.50468485,36.8520676 L15.3537217,36.8520676 C15.8928079,36.8520676 16.3285612,36.4117647 16.3285612,35.8692487 C16.3285612,35.3267327 15.8928079,34.8864298 15.3537217,34.8864298 M11.4543638,9.3331392 L15.3537217,9.3331392 C15.8928079,9.3331392 16.3285612,8.89283634 16.3285612,8.35032033 C16.3285612,7.80780431 15.8928079,7.36750146 15.3537217,7.36750146 L11.4543638,7.36750146 C10.9152776,7.36750146 10.4795243,7.80780431 10.4795243,8.35032033 C10.4795243,8.89283634 10.9152776,9.3331392 11.4543638,9.3331392 M13.4040427,3.43622598 L15.3537217,3.43622598 C15.8928079,3.43622598 16.3285612,2.99592312 16.3285612,2.45340711 C16.3285612,1.91089109 15.8928079,1.47058824 15.3537217,1.47058824 L13.4040427,1.47058824 C12.8649565,1.47058824 12.4292033,1.91089109 12.4292033,2.45340711 C12.4292033,2.99592312 12.8649565,3.43622598 13.4040427,3.43622598 M21.2027585,11.2987769 C21.7418447,11.2987769 22.177598,10.8584741 22.177598,10.3159581 L22.177598,3.43622598 L26.5945956,3.43622598 C26.713526,3.43622598 27.0167011,3.60821928 27.1317322,3.87456319 L30.0562506,10.7051543 C30.2151494,11.0766599 30.5738904,11.2987769 30.9521281,11.2987769 C31.0808069,11.2987769 31.2124102,11.2732236 31.3371897,11.2181858 C31.8314333,11.0029485 32.0595457,10.425051 31.8460559,9.92676179 L28.9195878,3.09125655 C28.5121049,2.15168171 27.5343409,1.47058824 26.5945956,1.47058824 L22.177598,1.47058824 C21.10235,1.47058824 20.227919,2.37379878 20.227919,3.48536692 L20.227919,10.3159581 C20.227919,10.8584741 20.6636723,11.2987769 21.2027585,11.2987769 M40.699548,28.9895166 L52.3976216,28.9895166 C52.9367078,28.9895166 53.3724611,28.5492137 53.3724611,28.0066977 C53.3724611,27.4641817 52.9367078,27.0238789 52.3976216,27.0238789 L40.699548,27.0238789 C40.1604617,27.0238789 39.7247085,27.4641817 39.7247085,28.0066977 C39.7247085,28.5492137 40.1604617,28.9895166 40.699548,28.9895166 M12.4292033,19.1613279 C12.4292033,20.2453771 13.3036343,21.1269656 14.3788822,21.1269656 C15.4541301,21.1269656 16.3285612,20.2453771 16.3285612,19.1613279 C16.3285612,18.0772787 15.4541301,17.1956902 14.3788822,17.1956902 C13.3036343,17.1956902 12.4292033,18.0772787 12.4292033,19.1613279 M22.177598,19.1613279 C22.177598,18.0772787 21.303167,17.1956902 20.227919,17.1956902 C19.1526711,17.1956902 18.2782401,18.0772787 18.2782401,19.1613279 C18.2782401,20.2453771 19.1526711,21.1269656 20.227919,21.1269656 C21.303167,21.1269656 22.177598,20.2453771 22.177598,19.1613279 M28.0266348,19.1613279 C28.0266348,18.0772787 27.1522038,17.1956902 26.0769559,17.1956902 C25.0017079,17.1956902 24.1272769,18.0772787 24.1272769,19.1613279 C24.1272769,20.2453771 25.0017079,21.1269656 26.0769559,21.1269656 C27.1522038,21.1269656 28.0266348,20.2453771 28.0266348,19.1613279 M33.8756716,19.1613279 C33.8756716,18.0772787 33.0012406,17.1956902 31.9259927,17.1956902 C30.8507448,17.1956902 29.9763138,18.0772787 29.9763138,19.1613279 C29.9763138,20.2453771 30.8507448,21.1269656 31.9259927,21.1269656 C33.0012406,21.1269656 33.8756716,20.2453771 33.8756716,19.1613279 M37.7750295,17.1956902 C36.6997816,17.1956902 35.8253506,18.0772787 35.8253506,19.1613279 C35.8253506,20.2453771 36.6997816,21.1269656 37.7750295,21.1269656 C38.8502775,21.1269656 39.7247085,20.2453771 39.7247085,19.1613279 C39.7247085,18.0772787 38.8502775,17.1956902 37.7750295,17.1956902 M59.2214979,26.04106 C59.2214979,29.8347408 56.1595271,32.9207921 52.3976216,32.9207921 L35.5689678,32.9207921 L28.9069149,47.1009027 C28.5013816,47.9913366 27.5265422,48.645894 26.5945956,48.645894 L22.177598,48.645894 C21.10235,48.645894 20.227919,47.7643055 20.227919,46.6802563 L20.227919,28.0066977 C20.227919,27.4641817 20.6636723,27.0238789 21.2027585,27.0238789 L32.9008322,27.0238789 C33.4399184,27.0238789 33.8756716,27.4641817 33.8756716,28.0066977 C33.8756716,28.5492137 33.4399184,28.9895166 32.9008322,28.9895166 L22.177598,28.9895166 L22.177598,46.6802563 L26.5945956,46.6802563 C26.7359474,46.6802563 27.0332734,46.5043317 27.1414806,46.2704208 L35.91991,27.5860513 C36.150947,27.0956246 36.733901,26.887267 37.2174214,27.1182295 C37.7038663,27.3511575 37.9124819,27.9369176 37.6804701,28.4273442 L36.4940905,30.9551543 L52.3976216,30.9551543 C55.085254,30.9551543 57.271819,28.7506916 57.271819,26.04106 C57.271819,23.3314284 55.085254,21.1269656 52.3976216,21.1269656 C51.9209251,21.1269656 51.5144171,20.7790478 51.4364299,20.3063119 C51.4013357,20.1009027 50.5269047,15.2300524 46.5485848,15.2300524 L43.8970214,15.2300524 L44.5540632,17.8767836 C44.7002891,18.2374782 45.1652876,19.1613279 46.0816367,19.1613279 L48.4982637,19.1613279 C49.03735,19.1613279 49.4731032,19.6016308 49.4731032,20.1441468 C49.4731032,20.6866628 49.03735,21.1269656 48.4982637,21.1269656 L46.0816367,21.1269656 C44.6145033,21.1269656 43.3238158,20.1323529 42.7135663,18.5303582 C42.6999185,18.4939939 42.6882205,18.4556639 42.6784721,18.417334 L41.8888521,15.2300524 L7.96638816,15.2300524 C7.56767882,15.2300524 7.20991273,14.9853305 7.0607623,14.6128422 L5.11108335,9.69874782 C5.00872521,9.42650699 4.7689147,9.3331392 4.63048749,9.3331392 L2.68080855,9.3331392 L2.68080855,16.2128713 C2.68080855,24.4793608 9.10402583,30.9551543 17.3034006,30.9551543 C17.8424869,30.9551543 18.2782401,31.3954572 18.2782401,31.9379732 C18.2782401,32.4804892 17.8424869,32.9207921 17.3034006,32.9207921 C8.01123078,32.9207921 0.731129604,25.5820836 0.731129604,16.2128713 L0.731129604,9.3331392 C0.731129604,8.24908998 1.60556061,7.36750146 2.68080855,7.36750146 L4.63048749,7.36750146 C5.63944635,7.36750146 6.56164449,8.01714473 6.92720929,8.98325568 L8.62635449,13.2644147 L46.5485848,13.2644147 C50.5931938,13.2644147 52.5535959,16.8025626 53.1901661,19.2075204 C56.5816326,19.6045792 59.2214979,22.5186372 59.2214979,26.04106" id="plane" fill="#3E75C8" fill-rule="nonzero"></path>
                        </g>
                    </g>
                </g>
            </g>
        </g>
    </g>
</svg>